<svg xmlns="http://www.w3.org/2000/svg" xmlns:xlink="http://www.w3.org/1999/xlink" width="500" zoomAndPan="magnify" viewBox="0 0 375 374.999991" height="500" preserveAspectRatio="xMidYMid meet" version="1.0"><defs><clipPath id="51f78d72be"><path d="M 47.300781 119 L 121 119 L 121 258.636719 L 47.300781 258.636719 Z M 47.300781 119 " clip-rule="nonzero"/></clipPath><clipPath id="7b96265299"><path d="M 255 118.023438 L 328.53125 118.023438 L 328.53125 258 L 255 258 Z M 255 118.023438 " clip-rule="nonzero"/></clipPath><clipPath id="05f512f7aa"><path d="M 123.058594 194 L 252.808594 194 L 252.808594 258.273438 L 123.058594 258.273438 Z M 123.058594 194 " clip-rule="nonzero"/></clipPath></defs><g clip-path="url(#51f78d72be)"><path fill="#000000" d="M 120.667969 123.207031 C 120.667969 124.214844 120.308594 125.074219 119.59375 125.785156 L 56.164062 188.878906 L 119.59375 251.972656 C 119.777344 252.136719 119.941406 252.320312 120.085938 252.519531 C 120.230469 252.71875 120.351562 252.933594 120.453125 253.15625 C 120.554688 253.378906 120.632812 253.613281 120.6875 253.851562 C 120.742188 254.09375 120.773438 254.335938 120.777344 254.582031 C 120.78125 254.828125 120.761719 255.070312 120.71875 255.3125 C 120.671875 255.554688 120.605469 255.789062 120.511719 256.019531 C 120.417969 256.246094 120.304688 256.460938 120.167969 256.667969 C 120.03125 256.871094 119.875 257.0625 119.699219 257.234375 C 119.523438 257.410156 119.332031 257.5625 119.125 257.699219 C 118.921875 257.835938 118.703125 257.949219 118.472656 258.039062 C 118.242188 258.132812 118.003906 258.199219 117.761719 258.242188 C 117.515625 258.289062 117.273438 258.308594 117.023438 258.300781 C 116.777344 258.296875 116.53125 258.265625 116.289062 258.210938 C 116.046875 258.15625 115.816406 258.082031 115.589844 257.980469 C 115.363281 257.878906 115.148438 257.753906 114.949219 257.609375 C 114.75 257.46875 114.5625 257.304688 114.394531 257.125 L 48.371094 191.453125 C 48.027344 191.113281 47.765625 190.71875 47.578125 190.269531 C 47.394531 189.824219 47.300781 189.359375 47.300781 188.878906 C 47.300781 188.394531 47.394531 187.929688 47.578125 187.484375 C 47.765625 187.039062 48.027344 186.644531 48.371094 186.300781 L 114.394531 120.632812 C 114.652344 120.378906 114.941406 120.167969 115.261719 119.996094 C 115.582031 119.828125 115.921875 119.707031 116.277344 119.636719 C 116.632812 119.566406 116.992188 119.550781 117.351562 119.585938 C 117.714844 119.621094 118.0625 119.707031 118.398438 119.84375 C 118.730469 119.984375 119.039062 120.167969 119.320312 120.394531 C 119.601562 120.621094 119.84375 120.886719 120.046875 121.1875 C 120.246094 121.484375 120.402344 121.808594 120.507812 122.152344 C 120.613281 122.496094 120.667969 122.847656 120.667969 123.207031 Z M 120.667969 123.207031 " fill-opacity="1" fill-rule="nonzero"/></g><g clip-path="url(#7b96265299)"><path fill="#000000" d="M 255.164062 253.453125 C 255.164062 252.449219 255.519531 251.589844 256.234375 250.878906 L 319.664062 187.785156 L 256.234375 124.691406 C 256.054688 124.523438 255.890625 124.339844 255.746094 124.140625 C 255.601562 123.941406 255.476562 123.730469 255.375 123.507812 C 255.273438 123.28125 255.195312 123.050781 255.140625 122.808594 C 255.085938 122.570312 255.058594 122.328125 255.050781 122.082031 C 255.046875 121.835938 255.066406 121.59375 255.113281 121.351562 C 255.15625 121.109375 255.226562 120.875 255.316406 120.644531 C 255.410156 120.417969 255.523438 120.199219 255.660156 119.996094 C 255.796875 119.789062 255.953125 119.601562 256.128906 119.425781 C 256.304688 119.253906 256.496094 119.097656 256.703125 118.964844 C 256.910156 118.828125 257.128906 118.714844 257.359375 118.621094 C 257.585938 118.53125 257.824219 118.464844 258.066406 118.417969 C 258.3125 118.375 258.558594 118.355469 258.804688 118.359375 C 259.054688 118.367188 259.296875 118.394531 259.539062 118.449219 C 259.78125 118.503906 260.015625 118.582031 260.242188 118.683594 C 260.464844 118.785156 260.679688 118.90625 260.878906 119.050781 C 261.082031 119.195312 261.265625 119.359375 261.433594 119.539062 L 327.457031 185.210938 C 327.800781 185.550781 328.066406 185.945312 328.25 186.390625 C 328.4375 186.835938 328.527344 187.300781 328.527344 187.785156 C 328.527344 188.269531 328.4375 188.730469 328.25 189.179688 C 328.066406 189.625 327.800781 190.019531 327.457031 190.359375 L 261.433594 256.03125 C 261.175781 256.285156 260.886719 256.496094 260.566406 256.664062 C 260.246094 256.835938 259.910156 256.957031 259.554688 257.023438 C 259.195312 257.09375 258.839844 257.113281 258.476562 257.078125 C 258.117188 257.042969 257.769531 256.957031 257.433594 256.816406 C 257.097656 256.679688 256.789062 256.496094 256.507812 256.269531 C 256.226562 256.039062 255.984375 255.777344 255.785156 255.476562 C 255.582031 255.179688 255.429688 254.855469 255.324219 254.511719 C 255.214844 254.167969 255.164062 253.816406 255.164062 253.453125 Z M 255.164062 253.453125 " fill-opacity="1" fill-rule="nonzero"/></g><path fill="#000000" d="M 187.320312 161.507812 C 186.726562 156.296875 181.929688 153.027344 181.726562 152.890625 C 180.867188 152.3125 179.695312 152.539062 179.117188 153.398438 C 178.535156 154.257812 178.765625 155.425781 179.625 156.003906 C 179.664062 156.027344 183.1875 158.480469 183.578125 161.929688 C 183.804688 163.917969 182.9375 165.96875 181 168.035156 C 178.480469 170.71875 177.367188 173.644531 177.691406 176.726562 C 178.3125 182.648438 184.171875 186.792969 184.417969 186.964844 C 184.746094 187.195312 185.121094 187.304688 185.496094 187.304688 C 186.085938 187.304688 186.671875 187.023438 187.035156 186.503906 C 187.632812 185.65625 187.425781 184.488281 186.578125 183.890625 C 186.53125 183.859375 181.863281 180.535156 181.429688 176.320312 C 181.226562 174.347656 181.984375 172.476562 183.746094 170.597656 C 186.472656 167.695312 187.675781 164.636719 187.320312 161.507812 " fill-opacity="1" fill-rule="nonzero"/><path fill="#000000" d="M 159.257812 174.054688 C 160.042969 181.503906 167.457031 186.746094 167.769531 186.964844 C 168.097656 187.195312 168.472656 187.304688 168.84375 187.304688 C 169.4375 187.304688 170.023438 187.023438 170.386719 186.503906 C 170.984375 185.65625 170.777344 184.484375 169.929688 183.890625 C 169.867188 183.84375 163.59375 179.386719 163 173.648438 C 162.722656 170.949219 163.785156 168.296875 166.160156 165.765625 C 169.585938 162.117188 171.097656 158.289062 170.65625 154.394531 C 169.910156 147.878906 163.886719 143.765625 163.632812 143.59375 C 162.773438 143.019531 161.605469 143.242188 161.023438 144.101562 C 160.441406 144.957031 160.667969 146.125 161.527344 146.707031 C 161.574219 146.738281 166.386719 150.054688 166.917969 154.835938 C 167.222656 157.585938 166.042969 160.398438 163.414062 163.203125 C 160.253906 166.566406 158.855469 170.21875 159.257812 174.054688 " fill-opacity="1" fill-rule="nonzero"/><path fill="#000000" d="M 138.648438 170.585938 C 139.640625 180.015625 149.074219 186.6875 149.476562 186.964844 C 149.804688 187.195312 150.179688 187.304688 150.550781 187.304688 C 151.144531 187.304688 151.730469 187.023438 152.09375 186.503906 C 152.6875 185.65625 152.484375 184.484375 151.632812 183.890625 C 151.546875 183.832031 143.191406 177.898438 142.390625 170.179688 C 142.007812 166.496094 143.441406 162.898438 146.648438 159.484375 C 150.984375 154.863281 152.902344 150.039062 152.34375 145.144531 C 151.40625 136.933594 143.78125 131.730469 143.457031 131.511719 C 142.597656 130.9375 141.433594 131.160156 140.851562 132.019531 C 140.269531 132.878906 140.496094 134.042969 141.351562 134.625 C 141.421875 134.667969 147.882812 139.109375 148.605469 145.589844 C 149.023438 149.335938 147.441406 153.144531 143.902344 156.917969 C 139.910156 161.167969 138.144531 165.765625 138.648438 170.585938 " fill-opacity="1" fill-rule="nonzero"/><g clip-path="url(#05f512f7aa)"><path fill="#000000" d="M 248.910156 204.5 C 248.910156 207.71875 246.28125 210.34375 243.050781 210.34375 L 236.742188 210.34375 L 236.742188 198.496094 L 243.050781 198.496094 C 246.28125 198.496094 248.910156 201.117188 248.910156 204.339844 Z M 232.976562 238.214844 C 232.976562 247.214844 225.632812 254.539062 216.609375 254.539062 L 159.253906 254.539062 C 150.226562 254.539062 142.882812 247.214844 142.882812 238.214844 L 142.882812 198.496094 L 232.976562 198.496094 Z M 132.8125 210.34375 C 129.582031 210.34375 126.953125 207.71875 126.953125 204.5 L 126.953125 204.339844 C 126.953125 201.117188 129.582031 198.496094 132.8125 198.496094 L 139.121094 198.496094 L 139.121094 210.34375 Z M 243.050781 194.742188 L 132.8125 194.742188 C 127.507812 194.742188 123.1875 199.050781 123.1875 204.339844 L 123.1875 204.5 C 123.1875 209.789062 127.507812 214.09375 132.8125 214.09375 L 139.121094 214.09375 L 139.121094 238.214844 C 139.121094 249.285156 148.152344 258.292969 159.253906 258.292969 L 216.609375 258.292969 C 227.710938 258.292969 236.742188 249.285156 236.742188 238.214844 L 236.742188 214.09375 L 243.050781 214.09375 C 248.355469 214.09375 252.675781 209.789062 252.675781 204.5 L 252.675781 204.339844 C 252.675781 199.050781 248.355469 194.742188 243.050781 194.742188 " fill-opacity="1" fill-rule="nonzero"/></g><path fill="#000000" d="M 220.980469 142.878906 C 239.34375 162.003906 239.394531 179.949219 238.332031 187.519531 L 177.003906 123.660156 C 184.625 122.933594 202.613281 123.753906 220.980469 142.878906 Z M 218.121094 133.457031 C 219.796875 131.855469 221.96875 131.003906 224.320312 131.050781 C 226.644531 131.101562 228.808594 132.046875 230.417969 133.726562 L 230.5625 133.875 C 233.878906 137.328125 233.757812 142.828125 230.296875 146.136719 L 229.449219 146.945312 C 227.75 144.742188 225.84375 142.519531 223.695312 140.285156 C 221.550781 138.046875 219.402344 136.050781 217.273438 134.265625 Z M 237.210938 191.777344 C 237.210938 191.777344 237.210938 191.777344 237.214844 191.78125 C 237.710938 192.296875 238.390625 192.578125 239.085938 192.578125 C 239.324219 192.578125 239.558594 192.546875 239.792969 192.480469 C 240.71875 192.222656 241.417969 191.476562 241.621094 190.542969 C 242.742188 185.367188 244.789062 168.878906 231.691406 150 L 232.898438 148.84375 C 237.859375 144.109375 238.03125 136.226562 233.277344 131.277344 L 233.132812 131.125 C 230.832031 128.730469 227.730469 127.371094 224.402344 127.296875 C 221.128906 127.230469 217.921875 128.449219 215.515625 130.746094 L 214.308594 131.898438 C 195.957031 118.03125 179.34375 119.359375 174.117188 120.253906 C 173.171875 120.417969 172.398438 121.082031 172.09375 121.988281 C 171.792969 122.898438 172.019531 123.898438 172.6875 124.59375 L 237.210938 191.777344 " fill-opacity="1" fill-rule="nonzero"/></svg>