<svg xmlns="http://www.w3.org/2000/svg" xmlns:xlink="http://www.w3.org/1999/xlink" width="500" zoomAndPan="magnify" viewBox="0 0 375 187.499995" height="250" preserveAspectRatio="xMidYMid meet" version="1.0"><defs><clipPath id="13586be719"><path d="M 0.5 1 L 98 1 L 98 187 L 0.5 187 Z M 0.5 1 " clip-rule="nonzero"/></clipPath><clipPath id="6cbc67db5c"><path d="M 277 0 L 374.5 0 L 374.5 186 L 277 186 Z M 277 0 " clip-rule="nonzero"/></clipPath><clipPath id="8f1650372f"><path d="M 101.246094 102 L 274 102 L 274 187 L 101.246094 187 Z M 101.246094 102 " clip-rule="nonzero"/></clipPath></defs><g clip-path="url(#13586be719)"><path fill="#000000" d="M 97.324219 6.429688 C 97.324219 7.074219 97.203125 7.691406 96.957031 8.289062 C 96.710938 8.882812 96.363281 9.40625 95.910156 9.863281 L 12.199219 93.984375 L 95.910156 178.109375 C 96.148438 178.328125 96.363281 178.574219 96.554688 178.839844 C 96.746094 179.105469 96.910156 179.386719 97.042969 179.6875 C 97.179688 179.984375 97.28125 180.296875 97.351562 180.617188 C 97.425781 180.933594 97.464844 181.257812 97.46875 181.585938 C 97.476562 181.914062 97.449219 182.238281 97.390625 182.5625 C 97.332031 182.886719 97.242188 183.199219 97.121094 183.503906 C 96.996094 183.804688 96.847656 184.09375 96.667969 184.367188 C 96.484375 184.640625 96.28125 184.894531 96.046875 185.125 C 95.816406 185.359375 95.566406 185.5625 95.292969 185.746094 C 95.019531 185.925781 94.730469 186.078125 94.425781 186.199219 C 94.125 186.320312 93.8125 186.410156 93.488281 186.46875 C 93.167969 186.527344 92.84375 186.554688 92.515625 186.546875 C 92.191406 186.539062 91.867188 186.5 91.546875 186.429688 C 91.230469 186.355469 90.921875 186.25 90.621094 186.117188 C 90.324219 185.980469 90.042969 185.816406 89.777344 185.625 C 89.511719 185.433594 89.269531 185.21875 89.050781 184.976562 L 1.917969 97.417969 C 1.691406 97.195312 1.492188 96.949219 1.316406 96.683594 C 1.140625 96.417969 0.992188 96.136719 0.867188 95.84375 C 0.746094 95.550781 0.65625 95.246094 0.59375 94.933594 C 0.53125 94.621094 0.5 94.304688 0.5 93.984375 C 0.5 93.667969 0.53125 93.351562 0.59375 93.039062 C 0.65625 92.726562 0.746094 92.421875 0.867188 92.128906 C 0.992188 91.832031 1.140625 91.554688 1.316406 91.289062 C 1.492188 91.023438 1.691406 90.777344 1.917969 90.550781 L 89.050781 2.996094 C 89.386719 2.65625 89.769531 2.375 90.191406 2.148438 C 90.613281 1.921875 91.0625 1.761719 91.53125 1.667969 C 92 1.574219 92.472656 1.550781 92.949219 1.597656 C 93.425781 1.644531 93.886719 1.761719 94.328125 1.945312 C 94.769531 2.128906 95.179688 2.375 95.546875 2.675781 C 95.917969 2.980469 96.238281 3.332031 96.503906 3.734375 C 96.769531 4.132812 96.972656 4.5625 97.113281 5.019531 C 97.253906 5.480469 97.324219 5.949219 97.324219 6.429688 Z M 97.324219 6.429688 " fill-opacity="1" fill-rule="nonzero"/></g><g clip-path="url(#6cbc67db5c)"><path fill="#000000" d="M 277.675781 180.570312 C 277.675781 179.925781 277.796875 179.304688 278.042969 178.710938 C 278.289062 178.117188 278.636719 177.589844 279.089844 177.132812 L 362.800781 93.011719 L 279.089844 8.890625 C 278.851562 8.667969 278.636719 8.425781 278.445312 8.160156 C 278.253906 7.890625 278.089844 7.609375 277.957031 7.3125 C 277.820312 7.011719 277.71875 6.703125 277.648438 6.382812 C 277.574219 6.0625 277.535156 5.738281 277.53125 5.410156 C 277.523438 5.082031 277.550781 4.757812 277.609375 4.4375 C 277.667969 4.113281 277.757812 3.800781 277.878906 3.496094 C 278.003906 3.191406 278.152344 2.902344 278.332031 2.628906 C 278.515625 2.355469 278.71875 2.105469 278.953125 1.871094 C 279.183594 1.640625 279.433594 1.433594 279.707031 1.253906 C 279.980469 1.074219 280.269531 0.921875 280.574219 0.800781 C 280.875 0.675781 281.1875 0.585938 281.511719 0.527344 C 281.832031 0.46875 282.15625 0.445312 282.484375 0.449219 C 282.808594 0.457031 283.132812 0.496094 283.453125 0.570312 C 283.769531 0.640625 284.078125 0.746094 284.378906 0.882812 C 284.675781 1.015625 284.957031 1.179688 285.222656 1.371094 C 285.488281 1.5625 285.730469 1.78125 285.949219 2.023438 L 373.082031 89.578125 C 373.308594 89.804688 373.507812 90.050781 373.683594 90.316406 C 373.859375 90.582031 374.007812 90.859375 374.132812 91.15625 C 374.253906 91.449219 374.34375 91.753906 374.40625 92.066406 C 374.46875 92.378906 374.5 92.695312 374.5 93.011719 C 374.5 93.332031 374.46875 93.648438 374.40625 93.960938 C 374.34375 94.273438 374.253906 94.574219 374.132812 94.871094 C 374.007812 95.164062 373.859375 95.445312 373.683594 95.710938 C 373.507812 95.976562 373.308594 96.222656 373.082031 96.445312 L 285.949219 184.003906 C 285.613281 184.34375 285.230469 184.625 284.808594 184.851562 C 284.386719 185.078125 283.9375 185.234375 283.46875 185.328125 C 283 185.421875 282.527344 185.445312 282.050781 185.398438 C 281.574219 185.351562 281.113281 185.234375 280.671875 185.050781 C 280.230469 184.867188 279.820312 184.625 279.453125 184.320312 C 279.082031 184.015625 278.761719 183.664062 278.496094 183.265625 C 278.230469 182.867188 278.027344 182.4375 277.886719 181.976562 C 277.746094 181.519531 277.675781 181.050781 277.675781 180.570312 Z M 277.675781 180.570312 " fill-opacity="1" fill-rule="nonzero"/></g><path fill="#000000" d="M 186.824219 57.976562 C 186.035156 51.03125 179.648438 46.667969 179.375 46.488281 C 178.230469 45.71875 176.671875 46.019531 175.898438 47.167969 C 175.125 48.3125 175.429688 49.867188 176.578125 50.636719 C 176.628906 50.671875 181.320312 53.941406 181.84375 58.542969 C 182.144531 61.191406 180.988281 63.929688 178.410156 66.683594 C 175.050781 70.261719 173.570312 74.160156 174 78.269531 C 174.828125 86.167969 182.632812 91.691406 182.960938 91.921875 C 183.398438 92.226562 183.898438 92.375 184.394531 92.375 C 185.183594 92.375 185.960938 92 186.449219 91.308594 C 187.242188 90.179688 186.964844 88.617188 185.839844 87.824219 C 185.773438 87.78125 179.5625 83.347656 178.980469 77.726562 C 178.710938 75.097656 179.722656 72.601562 182.066406 70.101562 C 185.699219 66.226562 187.300781 62.148438 186.824219 57.976562 " fill-opacity="1" fill-rule="nonzero"/><path fill="#000000" d="M 149.457031 74.707031 C 150.5 84.644531 160.371094 91.632812 160.792969 91.921875 C 161.226562 92.226562 161.726562 92.375 162.222656 92.375 C 163.011719 92.375 163.789062 92 164.273438 91.304688 C 165.070312 90.175781 164.796875 88.617188 163.664062 87.824219 C 163.582031 87.761719 155.226562 81.820312 154.4375 74.167969 C 154.066406 70.566406 155.484375 67.03125 158.644531 63.65625 C 163.210938 58.789062 165.222656 53.6875 164.632812 48.492188 C 163.644531 39.804688 155.621094 34.324219 155.277344 34.09375 C 154.136719 33.328125 152.582031 33.625 151.804688 34.769531 C 151.035156 35.914062 151.332031 37.46875 152.476562 38.242188 C 152.539062 38.285156 158.945312 42.707031 159.65625 49.085938 C 160.0625 52.746094 158.492188 56.5 154.988281 60.238281 C 150.78125 64.722656 148.917969 69.59375 149.457031 74.707031 " fill-opacity="1" fill-rule="nonzero"/><path fill="#000000" d="M 122.011719 70.082031 C 123.332031 82.65625 135.894531 91.550781 136.429688 91.921875 C 136.863281 92.226562 137.363281 92.375 137.859375 92.375 C 138.652344 92.375 139.429688 92 139.917969 91.304688 C 140.707031 90.175781 140.433594 88.613281 139.300781 87.824219 C 139.1875 87.742188 128.0625 79.832031 126.996094 69.542969 C 126.484375 64.632812 128.394531 59.835938 132.660156 55.28125 C 138.4375 49.121094 140.992188 42.6875 140.246094 36.164062 C 139 25.210938 128.847656 18.273438 128.414062 17.984375 C 127.269531 17.214844 125.71875 17.519531 124.941406 18.660156 C 124.167969 19.804688 124.46875 21.359375 125.613281 22.132812 C 125.699219 22.191406 134.304688 28.113281 135.269531 36.757812 C 135.828125 41.75 133.71875 46.832031 129.003906 51.859375 C 123.691406 57.527344 121.339844 63.65625 122.011719 70.082031 " fill-opacity="1" fill-rule="nonzero"/><g clip-path="url(#8f1650372f)"><path fill="#000000" d="M 268.847656 115.300781 C 268.847656 119.597656 265.34375 123.089844 261.042969 123.089844 L 252.640625 123.089844 L 252.640625 107.296875 L 261.042969 107.296875 C 265.34375 107.296875 268.847656 110.792969 268.847656 115.089844 Z M 247.628906 160.257812 C 247.628906 172.257812 237.847656 182.019531 225.832031 182.019531 L 149.449219 182.019531 C 137.429688 182.019531 127.648438 172.257812 127.648438 160.257812 L 127.648438 107.296875 L 247.628906 107.296875 Z M 114.238281 123.089844 C 109.9375 123.089844 106.433594 119.597656 106.433594 115.300781 L 106.433594 115.089844 C 106.433594 110.792969 109.9375 107.296875 114.238281 107.296875 L 122.640625 107.296875 L 122.640625 123.089844 Z M 261.042969 102.292969 L 114.238281 102.292969 C 107.171875 102.292969 101.421875 108.035156 101.421875 115.089844 L 101.421875 115.300781 C 101.421875 122.355469 107.171875 128.097656 114.238281 128.097656 L 122.640625 128.097656 L 122.640625 160.257812 C 122.640625 175.015625 134.664062 187.023438 149.449219 187.023438 L 225.832031 187.023438 C 240.613281 187.023438 252.640625 175.015625 252.640625 160.257812 L 252.640625 128.097656 L 261.042969 128.097656 C 268.109375 128.097656 273.859375 122.355469 273.859375 115.300781 L 273.859375 115.089844 C 273.859375 108.035156 268.109375 102.292969 261.042969 102.292969 " fill-opacity="1" fill-rule="nonzero"/></g><path fill="#000000" d="M 231.648438 33.140625 C 256.105469 58.640625 256.171875 82.566406 254.761719 92.664062 L 173.085938 7.515625 C 183.234375 6.542969 207.1875 7.640625 231.648438 33.140625 Z M 227.839844 20.578125 C 230.078125 18.441406 232.96875 17.308594 236.101562 17.367188 C 239.191406 17.4375 242.074219 18.699219 244.21875 20.9375 L 244.410156 21.136719 C 248.828125 25.742188 248.667969 33.074219 244.058594 37.480469 L 242.929688 38.558594 C 240.667969 35.628906 238.128906 32.660156 235.265625 29.679688 C 232.410156 26.699219 229.550781 24.039062 226.714844 21.652344 Z M 253.265625 98.339844 C 253.265625 98.339844 253.265625 98.339844 253.269531 98.34375 C 253.929688 99.03125 254.835938 99.40625 255.761719 99.40625 C 256.078125 99.40625 256.394531 99.363281 256.703125 99.277344 C 257.933594 98.929688 258.867188 97.941406 259.136719 96.691406 C 260.628906 89.792969 263.355469 67.808594 245.914062 42.632812 L 247.523438 41.09375 C 254.128906 34.777344 254.359375 24.273438 248.027344 17.671875 L 247.835938 17.472656 C 244.769531 14.273438 240.640625 12.460938 236.210938 12.367188 C 231.847656 12.273438 227.578125 13.902344 224.375 16.964844 L 222.765625 18.5 C 198.328125 0.0117188 176.207031 1.777344 169.242188 2.976562 C 167.980469 3.191406 166.953125 4.078125 166.550781 5.285156 C 166.148438 6.503906 166.453125 7.832031 167.339844 8.757812 L 253.265625 98.339844 " fill-opacity="1" fill-rule="nonzero"/></svg>